#N canvas 0 93 1920 987 10;
#N canvas 65 146 1782 934 init 0;
#X obj 510 68 loadbang;
#X msg 510 89 bang \; pd dsp 1 \;;
#X text 1485 499 /* ch - channel */;
#X text 1486 526 /* l - layer */;
#X text 1486 540 /* a/b - version */;
#X text 1485 485 /* p - phrase */;
#X obj 53 622 table p1_ch1_t2_l1_a;
#X obj 52 645 table p1_ch1_t2_l2_a;
#X obj 209 622 table p1_ch1_t2_l1_b;
#X obj 209 645 table p1_ch1_t2_l2_b;
#X obj 52 697 table p1_ch1_t3_l1_a;
#X obj 51 720 table p1_ch1_t3_l2_a;
#X obj 208 697 table p1_ch1_t3_l1_b;
#X obj 208 720 table p1_ch1_t3_l2_b;
#X obj 51 768 table p1_ch1_t4_l1_a;
#X obj 50 791 table p1_ch1_t4_l2_a;
#X obj 207 768 table p1_ch1_t4_l1_b;
#X obj 207 791 table p1_ch1_t4_l2_b;
#X text 50 531 track 1:;
#X text 49 603 track 2:;
#X text 50 680 track 3:;
#X text 47 750 track 4:;
#X text 398 532 track 1:;
#X text 396 606 track 2:;
#X text 397 683 track 3:;
#X text 394 753 track 4:;
#X obj 401 551 table p1_ch2_t1_l1_a;
#X obj 557 551 table p1_ch2_t1_l1_b;
#X obj 400 574 table p1_ch2_t1_l2_a;
#X obj 557 574 table p1_ch2_t1_l2_b;
#X obj 400 625 table p1_ch2_t2_l1_a;
#X obj 556 625 table p1_ch2_t2_l1_b;
#X obj 399 648 table p1_ch2_t2_l2_a;
#X obj 555 648 table p1_ch2_t2_l2_b;
#X obj 398 700 table p1_ch2_t3_l1_a;
#X obj 555 700 table p1_ch2_t3_l1_b;
#X obj 398 723 table p1_ch2_t3_l2_a;
#X obj 555 723 table p1_ch2_t3_l2_b;
#X obj 398 771 table p1_ch2_t4_l1_a;
#X obj 397 794 table p1_ch2_t4_l2_a;
#X obj 554 771 table p1_ch2_t4_l1_b;
#X obj 554 794 table p1_ch2_t4_l2_b;
#X text 793 534 track 1:;
#X text 791 608 track 2:;
#X text 792 685 track 3:;
#X text 789 755 track 4:;
#X text 1141 537 track 1:;
#X text 1139 611 track 2:;
#X text 1140 688 track 3:;
#X text 1137 758 track 4:;
#X obj 796 553 table p2_ch1_t1_l1_a;
#X obj 952 553 table p2_ch1_t1_l1_b;
#X obj 795 576 table p2_ch1_t1_l2_a;
#X obj 952 576 table p2_ch1_t1_l2_b;
#X obj 795 627 table p2_ch1_t2_l1_a;
#X obj 951 627 table p2_ch1_t2_l1_b;
#X obj 794 650 table p2_ch1_t2_l2_a;
#X obj 951 650 table p2_ch1_t2_l2_b;
#X obj 794 702 table p2_ch1_t3_l1_a;
#X obj 950 702 table p2_ch1_t3_l1_b;
#X obj 793 725 table p2_ch1_t3_l2_a;
#X obj 950 725 table p2_ch1_t3_l2_b;
#X obj 793 773 table p2_ch1_t4_l1_a;
#X obj 949 773 table p2_ch1_t4_l1_b;
#X obj 792 796 table p2_ch1_t4_l2_a;
#X obj 949 796 table p2_ch1_t4_l2_b;
#X obj 1144 556 table p2_ch2_t1_l1_a;
#X obj 1300 556 table p2_ch2_t1_l1_b;
#X obj 1143 579 table p2_ch2_t1_l2_a;
#X obj 1300 579 table p2_ch2_t1_l2_b;
#X obj 1143 630 table p2_ch2_t2_l1_a;
#X obj 1299 630 table p2_ch2_t2_l1_b;
#X obj 1142 653 table p2_ch2_t2_l2_a;
#X obj 1298 653 table p2_ch2_t2_l2_b;
#X obj 1141 705 table p2_ch2_t3_l1_a;
#X obj 1298 705 table p2_ch2_t3_l1_b;
#X obj 1141 728 table p2_ch2_t3_l2_a;
#X obj 1298 728 table p2_ch2_t3_l2_b;
#X obj 1141 776 table p2_ch2_t4_l1_a;
#X obj 1297 776 table p2_ch2_t4_l1_b;
#X obj 1140 799 table p2_ch2_t4_l2_a;
#X obj 1297 799 table p2_ch2_t4_l2_b;
#X obj 39 495 bng 15 250 50 0 empty empty empty 17 7 0 10 -262144 -1
-1;
#X obj 360 510 bng 15 250 50 0 empty empty empty 17 7 0 10 -262144
-1 -1;
#X obj 360 843 bng 15 250 50 0 empty empty empty 17 7 0 10 -262144
-1 -1;
#X obj 39 828 bng 15 250 50 0 empty empty empty 17 7 0 10 -262144 -1
-1;
#X text 62 493 channel 1:;
#X obj 1131 498 bng 15 250 50 0 empty empty empty 17 7 0 10 -262144
-1 -1;
#X obj 1452 513 bng 15 250 50 0 empty empty empty 17 7 0 10 -262144
-1 -1;
#X obj 1452 846 bng 15 250 50 0 empty empty empty 17 7 0 10 -262144
-1 -1;
#X obj 1131 831 bng 15 250 50 0 empty empty empty 17 7 0 10 -262144
-1 -1;
#X obj 389 498 bng 15 250 50 0 empty empty empty 17 7 0 10 -262144
-1 -1;
#X obj 710 513 bng 15 250 50 0 empty empty empty 17 7 0 10 -262144
-1 -1;
#X obj 710 846 bng 15 250 50 0 empty empty empty 17 7 0 10 -262144
-1 -1;
#X obj 389 831 bng 15 250 50 0 empty empty empty 17 7 0 10 -262144
-1 -1;
#X text 409 497 channel 2:;
#X obj 783 496 bng 15 250 50 0 empty empty empty 17 7 0 10 -262144
-1 -1;
#X obj 1104 511 bng 15 250 50 0 empty empty empty 17 7 0 10 -262144
-1 -1;
#X obj 1104 844 bng 15 250 50 0 empty empty empty 17 7 0 10 -262144
-1 -1;
#X obj 783 829 bng 15 250 50 0 empty empty empty 17 7 0 10 -262144
-1 -1;
#X text 806 494 channel 1:;
#X text 1154 496 channel 2:;
#X obj 18 455 bng 15 250 50 0 empty empty empty 17 7 0 10 -262144 -1
-1;
#X obj 735 470 bng 15 250 50 0 empty empty empty 17 7 0 10 -262144
-1 -1;
#X obj 18 863 bng 15 250 50 0 empty empty empty 17 7 0 10 -262144 -1
-1;
#X obj 735 878 bng 15 250 50 0 empty empty empty 17 7 0 10 -262144
-1 -1;
#X text 39 455 phrase 1:;
#X obj 765 456 bng 15 250 50 0 empty empty empty 17 7 0 10 -262144
-1 -1;
#X obj 1482 471 bng 15 250 50 0 empty empty empty 17 7 0 10 -262144
-1 -1;
#X obj 765 864 bng 15 250 50 0 empty empty empty 17 7 0 10 -262144
-1 -1;
#X obj 1482 879 bng 15 250 50 0 empty empty empty 17 7 0 10 -262144
-1 -1;
#X text 786 454 phrase 2:;
#X text 1486 512 /* t - track */;
#N canvas 271 191 1416 697 reset_volumes 0;
#X obj 784 14 inlet;
#X obj 1136 178 s volume_ch1_t1;
#X obj 532 204 s mute_ch1_t1;
#X obj 1121 213 s volume_ch1_t2;
#X obj 518 234 s mute_ch1_t2;
#X obj 1095 246 s volume_ch1_t3;
#X obj 504 271 s mute_ch1_t3;
#X obj 1076 286 s volume_ch1_t4;
#X obj 489 312 s mute_ch1_t4;
#X obj 930 388 s volume_ch2_t1;
#X obj 328 405 s mute_ch2_t1;
#X obj 888 421 s volume_ch2_t2;
#X obj 301 445 s mute_ch2_t2;
#X obj 838 468 s volume_ch2_t3;
#X obj 260 492 s mute_ch2_t3;
#X obj 797 507 s volume_ch2_t4;
#X obj 220 532 s mute_ch2_t4;
#X msg 438 88 0;
#X msg 948 66 1;
#X obj 540 165 s mute_ch1;
#X obj 362 376 s mute_ch2;
#X obj 1147 141 s volume_ch1;
#X obj 961 349 s volume_ch2;
#X obj 251 154 s mute_click;
#X obj 786 138 s volume_click;
#X connect 0 0 17 0;
#X connect 0 0 18 0;
#X connect 17 0 2 0;
#X connect 17 0 4 0;
#X connect 17 0 6 0;
#X connect 17 0 8 0;
#X connect 17 0 10 0;
#X connect 17 0 12 0;
#X connect 17 0 14 0;
#X connect 17 0 16 0;
#X connect 17 0 19 0;
#X connect 17 0 20 0;
#X connect 17 0 23 0;
#X connect 18 0 1 0;
#X connect 18 0 3 0;
#X connect 18 0 5 0;
#X connect 18 0 7 0;
#X connect 18 0 9 0;
#X connect 18 0 11 0;
#X connect 18 0 13 0;
#X connect 18 0 15 0;
#X connect 18 0 21 0;
#X connect 18 0 22 0;
#X connect 18 0 24 0;
#X restore 510 225 pd reset_volumes;
#N canvas 132 584 572 380 reset_click 0;
#X obj 107 278 s click;
#X msg 168 193 set_signature 4 4;
#X msg 169 235 set beat_count 0;
#X obj 90 81 inlet;
#X msg 45 191 set_tempo 60;
#X connect 1 0 0 0;
#X connect 2 0 0 0;
#X connect 3 0 4 0;
#X connect 3 0 1 0;
#X connect 3 0 2 0;
#X connect 4 0 0 0;
#X restore 568 152 pd reset_click;
#X obj 536 128 t b b;
#X msg 536 176 start;
#X obj 536 203 s click;
#X obj 53 550 table p1_ch1_t1_l1_a;
#X obj 53 573 table p1_ch1_t1_l2_a;
#X obj 209 550 table p1_ch1_t1_l1_b;
#X obj 209 573 table p1_ch1_t1_l2_b;
#X obj 401 204 s click;
#X msg 339 174 switch 1;
#X msg 408 174 reset;
#X obj 389 138 t b b;
#X connect 0 0 1 0;
#X connect 1 0 113 0;
#X connect 1 0 115 0;
#X connect 82 0 85 0;
#X connect 82 0 83 0;
#X connect 83 0 84 0;
#X connect 85 0 84 0;
#X connect 87 0 90 0;
#X connect 87 0 88 0;
#X connect 88 0 89 0;
#X connect 90 0 89 0;
#X connect 91 0 94 0;
#X connect 91 0 92 0;
#X connect 92 0 93 0;
#X connect 94 0 93 0;
#X connect 96 0 99 0;
#X connect 96 0 97 0;
#X connect 97 0 98 0;
#X connect 99 0 98 0;
#X connect 102 0 104 0;
#X connect 102 0 103 0;
#X connect 103 0 105 0;
#X connect 104 0 105 0;
#X connect 107 0 109 0;
#X connect 107 0 108 0;
#X connect 108 0 110 0;
#X connect 109 0 110 0;
#X connect 115 0 125 0;
#X connect 116 0 117 0;
#X connect 123 0 122 0;
#X connect 124 0 122 0;
#X connect 125 0 123 0;
#X connect 125 1 124 0;
#X restore 24 38 pd init;
#N canvas 609 368 804 534 channel_test 0;
#X obj 15 7 adc~;
#X obj 16 75 *~ 1;
#X obj 63 75 *~ 0;
#X obj 203 20 tgl 15 0 empty empty empty 17 7 0 10 -262144 -1 -1 0
1;
#X obj 154 5 sel 1;
#X msg 70 4 0;
#X msg 117 4 1;
#X msg 109 44 0;
#X msg 63 33 1;
#X obj 152 43 bng 15 250 50 0 empty empty empty 17 7 0 10 -262144 -1
-1;
#X floatatom 5 53 5 0 0 0 - - -, f 5;
#X floatatom 124 85 5 0 0 0 - - -, f 5;
#X obj 58 133 metro 100;
#X obj 58 113 tgl 15 0 empty empty empty 17 7 0 10 -262144 -1 -1 0
1;
#X text 79 114 monitor ON/OFF;
#X text 222 19 /* switch channels */;
#N canvas 65 85 450 250 (subpatch) 0;
#X array phrase_1_monitor 100 float 5;
#A 0 -8.91685e-05 -0.000119209 -9.72748e-05 -0.000134468 -0.000110626
-9.91821e-05 -9.29832e-05 -0.000119209 -8.24928e-05 -7.9155e-05 -0.000123978
-8.67844e-05 -0.000118256 -0.00013113 -0.000126839 -0.000134945 -8.10623e-05
-7.86781e-05 -0.000136852 -0.000123978 -0.000135899 -0.000112534 -0.000105858
-0.00011301 -7.24792e-05 -0.000118256 -8.44002e-05 -7.67708e-05 -0.000138283
-0.000112534 -6.1512e-05 -0.000118256 -0.000116825 -0.000102997 -0.000144005
-7.48634e-05 -8.29697e-05 -0.000133038 -0.000128746 -0.000119209 -8.72612e-05
-0.000120163 -9.72748e-05 -0.000104427 -0.000109673 -0.000111103 -9.48906e-05
-8.34465e-05 -0.000123024 -0.000123501 -0.000139713 -0.000104427 -0.000118732
-0.00011301 -0.000111103 -0.000121117 -9.15527e-05 -0.000100613 -0.000110149
-0.000104427 -0.000127316 -0.000119209 -8.82149e-05 -0.000118732 -8.86917e-05
-8.7738e-05 -0.00012064 -8.4877e-05 -7.39098e-05 -0.00011301 -0.000103951
-0.000115395 -9.9659e-05 -0.000133514 -0.000112057 -0.000109196 -0.000136852
-0.000125408 -0.000132561 -0.000127316 -0.000131607 -0.000128269 -0.000131607
-8.63075e-05 -5.8651e-05 -0.000119686 -8.58307e-05 -0.000102997 -0.000114441
-0.000102043 -8.86917e-05 -0.000114441 -0.000107288 -0.000138283 -0.000123501
-0.000104427 -0.000124931 -0.000104427 -0.000123024 -0.000138283;
#X coords 0 1 99 -1 200 140 1;
#X restore 239 143 graph;
#X obj 18 154 tabwrite~ phrase_1_monitor;
#X obj 35 217 +~;
#X obj 76 234 metro 100;
#X obj 97 315 tgl 15 0 empty empty empty 17 7 0 10 -262144 -1 -1 0
1;
#X text 97 215 monitor ON/OFF;
#X obj 36 255 tabwrite~ phrase_1_monitor;
#X obj 36 182 adc~;
#N canvas 65 89 450 250 (subpatch) 0;
#X array phrase_2_monitor 100 float 5;
#A 0 -0.0091691 -0.00999165 -0.00913239 -0.011106 -0.0129552 -0.0140867
-0.0146337 -0.0134015 -0.0138803 -0.0127516 -0.0124984 -0.0148611 -0.0130854
-0.0136213 -0.0151129 -0.0144153 -0.0138721 -0.015964 -0.0149021 -0.0136275
-0.0141315 -0.01015 -0.011982 -0.00912809 -0.00854301 -0.00791979 -0.0065794
-0.00459051 -0.00684977 -0.0043745 -0.00688028 -0.00483608 -0.00860023
-0.00478983 -0.00986385 -0.00657701 -0.00877666 -0.00638342 -0.00569201
-0.00470304 -0.00388908 -0.00469255 -0.00785208 -0.00703526 -0.0083065
-0.00884342 -0.00918961 -0.0100484 -0.00598192 -0.00887203 -0.0038166
-0.00527477 -0.00500679 -0.00308275 -0.00470304 -0.00181246 -0.00157881
0.000956535 -3.57628e-05 0.000300407 -0.00231075 -0.000334263 -0.00295734
0.00145817 -0.0017252 -4.76837e-07 -0.000961781 -0.00116396 0.00194693
0.00166845 0.00275755 0.00193787 -5.48363e-05 0.00172853 0.00209618
0.000571728 0.00121212 -0.000315666 0.000510216 -0.000209808 0.000451565
0.00283718 0.00370789 0.00501108 0.00783205 0.00826645 0.0106411 0.0112214
0.0103006 0.0109439 0.00980377 0.0096302 0.00677347 0.00846195 0.00789595
0.00820208 0.0094347 0.00906849 0.00740433 0.00922394;
#X coords 0 1 99 -1 200 140 1;
#X restore 238 158 graph;
#X obj 37 417 +~;
#X obj 78 434 metro 100;
#X text 99 415 monitor ON/OFF;
#X obj 38 382 adc~;
#X obj 38 455 tabwrite~ phrase_2_monitor;
#X connect 0 0 1 0;
#X connect 0 1 2 0;
#X connect 1 0 17 0;
#X connect 2 0 17 0;
#X connect 3 0 4 0;
#X connect 4 0 5 0;
#X connect 4 0 6 0;
#X connect 4 1 9 0;
#X connect 5 0 1 1;
#X connect 5 0 10 0;
#X connect 6 0 11 0;
#X connect 6 0 2 1;
#X connect 7 0 2 1;
#X connect 7 0 11 0;
#X connect 8 0 1 1;
#X connect 8 0 10 0;
#X connect 9 0 7 0;
#X connect 9 0 8 0;
#X connect 12 0 17 0;
#X connect 13 0 12 0;
#X connect 18 0 22 0;
#X connect 19 0 22 0;
#X connect 20 0 19 0;
#X connect 20 0 26 0;
#X connect 23 0 18 0;
#X connect 25 0 29 0;
#X connect 26 0 29 0;
#X connect 28 1 25 1;
#X restore 23 7 pd channel_test;
#N canvas 253 229 1537 815 mixer 0;
#X obj 45 20 bng 15 250 50 0 empty empty empty 17 7 0 10 -262144 -1
-1;
#X obj 45 298 bng 15 250 50 0 empty empty empty 17 7 0 10 -262144 -1
-1;
#X obj 687 35 bng 15 250 50 0 empty empty empty 17 7 0 10 -262144 -1
-1;
#X obj 687 313 bng 15 250 50 0 empty empty empty 17 7 0 10 -262144
-1 -1;
#X text 68 19 channel 1:;
#X obj 759 23 bng 15 250 50 0 empty empty empty 17 7 0 10 -262144 -1
-1;
#X obj 759 304 bng 15 250 50 0 empty empty empty 17 7 0 10 -262144
-1 -1;
#X obj 1401 38 bng 15 250 50 0 empty empty empty 17 7 0 10 -262144
-1 -1;
#X obj 1401 319 bng 15 250 50 0 empty empty empty 17 7 0 10 -262144
-1 -1;
#X text 782 22 channel 2:;
#X obj 221 53 r~ ch1_t2_l1;
#X obj 378 52 r~ ch1_t3_l1;
#X obj 531 52 r~ ch1_t4_l1;
#X obj 87 78 r~ ch1_t1_l2;
#X obj 237 78 r~ ch1_t2_l2;
#X obj 396 74 r~ ch1_t3_l2;
#X obj 547 75 r~ ch1_t4_l2;
#X obj 778 59 r~ ch2_t1_l1;
#X obj 930 59 r~ ch2_t2_l1;
#X obj 1087 58 r~ ch2_t3_l1;
#X obj 1240 58 r~ ch2_t4_l1;
#X obj 798 84 r~ ch2_t1_l2;
#X obj 946 84 r~ ch2_t2_l2;
#X obj 1106 83 r~ ch2_t3_l2;
#X obj 1256 83 r~ ch2_t4_l2;
#X obj 70 53 r~ ch1_t1_l1;
#X obj 104 129 r mute_ch1_t1;
#X obj 255 128 r mute_ch1_t2;
#X obj 415 125 r mute_ch1_t3;
#X obj 564 125 r mute_ch1_t4;
#X obj 814 139 r mute_ch2_t1;
#X obj 963 135 r mute_ch2_t2;
#X obj 1121 135 r mute_ch2_t3;
#X obj 1273 137 r mute_ch2_t4;
#X obj 69 105 +~;
#X obj 220 103 +~;
#X obj 378 102 +~;
#X obj 530 101 +~;
#X obj 779 114 +~;
#X obj 929 110 +~;
#X obj 1087 109 +~;
#X obj 1239 110 +~;
#X obj 69 211 *~;
#X obj 220 209 *~;
#X obj 378 205 *~;
#X obj 530 208 *~;
#X obj 779 220 *~;
#X obj 929 217 *~;
#X obj 1086 218 *~;
#X obj 1238 218 *~;
#X obj 142 247 +~;
#X obj 453 246 +~;
#X obj 304 288 +~;
#X obj 854 254 +~;
#X obj 1165 253 +~;
#X obj 1016 295 +~;
#X obj 717 524 +~;
#X obj 699 740 dac~;
#X obj 725 711 +~;
#X obj 761 574 *~;
#X obj 779 548 r volume_click;
#X obj 780 598 r mute_click;
#X obj 762 681 *~;
#X obj 104 105 r volume_ch1_t1;
#X obj 255 103 r volume_ch1_t2;
#X obj 415 101 r volume_ch1_t3;
#X obj 564 101 r volume_ch1_t4;
#X obj 814 114 r volume_ch2_t1;
#X obj 963 111 r volume_ch2_t2;
#X obj 1122 111 r volume_ch2_t3;
#X obj 1273 113 r volume_ch2_t4;
#X obj 69 130 *~;
#X obj 220 128 *~;
#X obj 378 127 *~;
#X obj 530 126 *~;
#X obj 779 139 *~;
#X obj 929 135 *~;
#X obj 1087 134 *~;
#X obj 1239 135 *~;
#X obj 508 336 r volume_ch1;
#X obj 970 338 r volume_ch2;
#X obj 563 366 r mute_ch1;
#X obj 944 365 r mute_ch2;
#X obj 473 336 *~;
#X obj 561 458 *~;
#X obj 933 338 *~;
#X obj 868 468 *~;
#X obj 255 153 sel 1;
#X msg 255 179 0, f 1;
#X msg 287 179 1, f 1;
#X obj 104 155 sel 1;
#X msg 104 181 0, f 1;
#X msg 136 181 1, f 1;
#X obj 415 150 sel 1;
#X msg 415 176 0, f 1;
#X msg 447 176 1, f 1;
#X obj 564 151 sel 1;
#X msg 564 177 0, f 1;
#X msg 596 177 1, f 1;
#X obj 814 164 sel 1;
#X msg 814 190 0, f 1;
#X msg 846 190 1, f 1;
#X obj 963 161 sel 1;
#X msg 963 187 0, f 1;
#X msg 995 187 1, f 1;
#X obj 1121 161 sel 1;
#X msg 1121 187 0, f 1;
#X msg 1153 187 1, f 1;
#X obj 1273 163 sel 1;
#X msg 1273 189 0, f 1;
#X msg 1305 189 1, f 1;
#X obj 944 390 sel 1;
#X msg 944 416 0, f 1;
#X msg 976 416 1, f 1;
#X obj 563 391 sel 1;
#X msg 563 417 0, f 1;
#X msg 595 417 1, f 1;
#X obj 780 623 sel 1;
#X msg 780 649 0, f 1;
#X msg 812 649 1, f 1;
#X obj 57 680 *~ 1;
#X obj 699 648 +~;
#X obj 760 524 r~ click_signal;
#X obj 57 703 s~ main_in_ch1;
#X obj 166 680 *~ 1;
#X obj 166 703 s~ main_in_ch2;
#X obj 588 552 r~ main_in_ch1;
#X obj 606 578 r~ main_in_ch2;
#X obj 588 604 +~;
#X obj 105 642 adc~;
#X connect 0 0 1 0;
#X connect 0 0 2 0;
#X connect 1 0 3 0;
#X connect 2 0 3 0;
#X connect 5 0 6 0;
#X connect 5 0 7 0;
#X connect 6 0 8 0;
#X connect 7 0 8 0;
#X connect 10 0 35 0;
#X connect 11 0 36 0;
#X connect 12 0 37 0;
#X connect 13 0 34 1;
#X connect 14 0 35 1;
#X connect 15 0 36 1;
#X connect 16 0 37 1;
#X connect 17 0 38 0;
#X connect 18 0 39 0;
#X connect 19 0 40 0;
#X connect 20 0 41 0;
#X connect 21 0 38 1;
#X connect 22 0 39 1;
#X connect 23 0 40 1;
#X connect 24 0 41 1;
#X connect 25 0 34 0;
#X connect 26 0 90 0;
#X connect 27 0 87 0;
#X connect 28 0 93 0;
#X connect 29 0 96 0;
#X connect 30 0 99 0;
#X connect 31 0 102 0;
#X connect 32 0 105 0;
#X connect 33 0 108 0;
#X connect 34 0 71 0;
#X connect 35 0 72 0;
#X connect 36 0 73 0;
#X connect 37 0 74 0;
#X connect 38 0 75 0;
#X connect 39 0 76 0;
#X connect 40 0 77 0;
#X connect 41 0 78 0;
#X connect 42 0 50 0;
#X connect 43 0 50 1;
#X connect 44 0 51 0;
#X connect 45 0 51 1;
#X connect 46 0 53 0;
#X connect 47 0 53 1;
#X connect 48 0 54 0;
#X connect 49 0 54 1;
#X connect 50 0 52 0;
#X connect 51 0 52 1;
#X connect 52 0 83 0;
#X connect 53 0 55 0;
#X connect 54 0 55 1;
#X connect 55 0 85 0;
#X connect 56 0 121 1;
#X connect 58 0 57 1;
#X connect 59 0 62 0;
#X connect 60 0 59 1;
#X connect 61 0 117 0;
#X connect 62 0 58 1;
#X connect 63 0 71 1;
#X connect 64 0 72 1;
#X connect 65 0 73 1;
#X connect 66 0 74 1;
#X connect 67 0 75 1;
#X connect 68 0 76 1;
#X connect 69 0 77 1;
#X connect 70 0 78 1;
#X connect 71 0 42 0;
#X connect 72 0 43 0;
#X connect 73 0 44 0;
#X connect 74 0 45 0;
#X connect 75 0 46 0;
#X connect 76 0 47 0;
#X connect 77 0 48 0;
#X connect 78 0 49 0;
#X connect 79 0 83 1;
#X connect 80 0 85 1;
#X connect 81 0 114 0;
#X connect 82 0 111 0;
#X connect 83 0 84 0;
#X connect 84 0 56 0;
#X connect 85 0 86 0;
#X connect 86 0 56 1;
#X connect 87 0 88 0;
#X connect 87 1 89 0;
#X connect 88 0 43 1;
#X connect 89 0 43 1;
#X connect 90 0 91 0;
#X connect 90 1 92 0;
#X connect 91 0 42 1;
#X connect 92 0 42 1;
#X connect 93 0 94 0;
#X connect 93 1 95 0;
#X connect 94 0 44 1;
#X connect 95 0 44 1;
#X connect 96 0 97 0;
#X connect 96 1 98 0;
#X connect 97 0 45 1;
#X connect 98 0 45 1;
#X connect 99 0 100 0;
#X connect 99 1 101 0;
#X connect 100 0 46 1;
#X connect 101 0 46 1;
#X connect 102 0 103 0;
#X connect 102 1 104 0;
#X connect 103 0 47 1;
#X connect 104 0 47 1;
#X connect 105 0 106 0;
#X connect 105 1 107 0;
#X connect 106 0 48 1;
#X connect 107 0 48 1;
#X connect 108 0 109 0;
#X connect 108 1 110 0;
#X connect 109 0 49 1;
#X connect 110 0 49 1;
#X connect 111 0 112 0;
#X connect 111 1 113 0;
#X connect 112 0 86 1;
#X connect 113 0 86 1;
#X connect 114 0 115 0;
#X connect 114 1 116 0;
#X connect 115 0 84 1;
#X connect 116 0 84 1;
#X connect 117 0 118 0;
#X connect 117 1 119 0;
#X connect 118 0 62 1;
#X connect 119 0 62 1;
#X connect 120 0 123 0;
#X connect 121 0 57 0;
#X connect 121 0 58 0;
#X connect 122 0 59 0;
#X connect 124 0 125 0;
#X connect 126 0 128 0;
#X connect 127 0 128 1;
#X connect 128 0 121 0;
#X connect 129 0 120 0;
#X connect 129 1 124 0;
#X restore 83 38 pd mixer;
#X obj 461 482 ml_track_manager;
#X obj 194 547 ml_recorder;
#X obj 506 506 s \$1;
#X obj 194 515 r recorder;
#X obj 219 572 s \$1;
#X obj 149 472 r new_cycle;
#X obj 176 494 r new_bar;
#X obj 98 850 r new_beat;
#X obj 151 922 s \$1;
#X obj 461 458 r track_manager;
#X obj 1104 319 r player;
#X msg 354 287 flag_recording ch1 t1;
#X msg 100 365 stop_recording ch1 t1;
#X obj 447 858 tabplay~;
#X obj 516 858 tabplay~;
#X obj 449 914 tabwrite~;
#X obj 448 886 +~;
#X obj 112 450 r set_up_new_cycle;
#X obj 454 681 r new_cycle;
#X obj 52 667 tabwrite~;
#X obj 484 886 r tabwrite_merge;
#X obj 447 807 r tabplay_merge_1;
#X obj 516 832 r tabplay_merge_2;
#X obj 483 754 s \$1;
#X obj 389 786 r start_merging;
#X msg 373 309 flag_recording ch1 t2;
#X msg 142 391 stop_recording ch1 t2;
#X obj 870 487 tabplay~;
#X obj 870 586 tabplay~;
#X obj 1067 487 tabplay~;
#X obj 1066 586 tabplay~;
#X obj 1261 486 tabplay~;
#X obj 1260 585 tabplay~;
#X obj 1457 486 tabplay~;
#X obj 1457 585 tabplay~;
#X obj 786 386 bng 15 250 50 0 empty empty empty 17 7 0 10 -262144
-1 -1;
#X obj 786 634 bng 15 250 50 0 empty empty empty 17 7 0 10 -262144
-1 -1;
#X obj 1619 401 bng 15 250 50 0 empty empty empty 17 7 0 10 -262144
-1 -1;
#X obj 1619 649 bng 15 250 50 0 empty empty empty 17 7 0 10 -262144
-1 -1;
#X obj 869 517 s~ ch1_t1_l1;
#X obj 870 614 s~ ch1_t1_l2;
#X obj 1066 517 s~ ch1_t2_l1;
#X obj 1065 613 s~ ch1_t2_l2;
#X obj 1261 516 s~ ch1_t3_l1;
#X obj 1260 613 s~ ch1_t3_l2;
#X obj 1458 516 s~ ch1_t4_l1;
#X obj 1457 613 s~ ch1_t4_l2;
#X obj 870 460 r tabplay_ch1_t1_l1;
#X obj 1067 460 r tabplay_ch1_t2_l1;
#X obj 1261 460 r tabplay_ch1_t3_l1;
#X obj 1457 460 r tabplay_ch1_t4_l1;
#X obj 870 558 r tabplay_ch1_t1_l2;
#X obj 1066 558 r tabplay_ch1_t2_l2;
#X obj 1260 558 r tabplay_ch1_t3_l2;
#X obj 1457 558 r tabplay_ch1_t4_l2;
#X obj 866 768 tabplay~;
#X obj 866 867 tabplay~;
#X obj 1063 768 tabplay~;
#X obj 1062 867 tabplay~;
#X obj 1258 767 tabplay~;
#X obj 1257 866 tabplay~;
#X obj 1457 767 tabplay~;
#X obj 1457 866 tabplay~;
#X obj 784 662 bng 15 250 50 0 empty empty empty 17 7 0 10 -262144
-1 -1;
#X obj 784 915 bng 15 250 50 0 empty empty empty 17 7 0 10 -262144
-1 -1;
#X obj 1619 677 bng 15 250 50 0 empty empty empty 17 7 0 10 -262144
-1 -1;
#X obj 1619 930 bng 15 250 50 0 empty empty empty 17 7 0 10 -262144
-1 -1;
#X obj 866 741 r tabplay_ch2_t1_l1;
#X obj 1063 741 r tabplay_ch2_t2_l1;
#X obj 1258 741 r tabplay_ch2_t3_l1;
#X obj 1457 741 r tabplay_ch2_t4_l1;
#X obj 865 798 s~ ch2_t1_l1;
#X obj 1062 798 s~ ch2_t2_l1;
#X obj 1258 797 s~ ch2_t3_l1;
#X obj 1458 797 s~ ch2_t4_l1;
#X obj 866 839 r tabplay_ch2_t1_l2;
#X obj 1062 839 r tabplay_ch2_t2_l2;
#X obj 1257 839 r tabplay_ch2_t3_l2;
#X obj 1457 839 r tabplay_ch2_t4_l2;
#X obj 866 895 s~ ch2_t1_l2;
#X obj 1061 894 s~ ch2_t2_l2;
#X obj 1257 894 s~ ch2_t3_l2;
#X obj 1457 894 s~ ch2_t4_l2;
#X obj 856 433 r loop_ch1_t1;
#X obj 817 460 spigot;
#X obj 1015 460 spigot;
#X obj 1054 433 r loop_ch1_t2;
#X obj 1210 460 spigot;
#X obj 1249 433 r loop_ch1_t3;
#X obj 1405 460 spigot;
#X obj 1444 433 r loop_ch1_t4;
#X obj 817 410 r new_cycle;
#X obj 1015 411 r new_cycle;
#X obj 1210 410 r new_cycle;
#X obj 1405 410 r new_cycle;
#X obj 813 741 spigot;
#X obj 1011 741 spigot;
#X obj 1206 741 spigot;
#X obj 1405 741 spigot;
#X obj 813 691 r new_cycle;
#X obj 1011 692 r new_cycle;
#X obj 1206 691 r new_cycle;
#X obj 1405 691 r new_cycle;
#X obj 852 714 r loop_ch2_t1;
#X obj 1050 714 r loop_ch2_t2;
#X obj 1245 714 r loop_ch2_t3;
#X obj 1444 714 r loop_ch2_t4;
#X msg 358 334 flag_swap_versions ch1 t1;
#X msg 353 364 flag_swap_versions ch1 t2;
#X obj 445 433 r set_up_new_cycle;
#X obj 1104 343 ml_player;
#X obj 1123 370 s \$1;
#X obj 25 424 bng 15 250 50 0 empty empty empty 17 7 0 10 -262144 -1
-1;
#X obj 339 439 bng 15 250 50 0 empty empty empty 17 7 0 10 -262144
-1 -1;
#X obj 25 681 bng 15 250 50 0 empty empty empty 17 7 0 10 -262144 -1
-1;
#X obj 339 696 bng 15 250 50 0 empty empty empty 17 7 0 10 -262144
-1 -1;
#X text 43 422 RECORDER;
#X obj 369 626 bng 15 250 50 0 empty empty empty 17 7 0 10 -262144
-1 -1;
#X obj 644 641 bng 15 250 50 0 empty empty empty 17 7 0 10 -262144
-1 -1;
#X obj 644 953 bng 15 250 50 0 empty empty empty 17 7 0 10 -262144
-1 -1;
#X obj 369 938 bng 15 250 50 0 empty empty empty 17 7 0 10 -262144
-1 -1;
#X obj 57 731 bng 15 250 50 0 empty empty empty 17 7 0 10 -262144 -1
-1;
#X obj 258 746 bng 15 250 50 0 empty empty empty 17 7 0 10 -262144
-1 -1;
#X obj 258 950 bng 15 250 50 0 empty empty empty 17 7 0 10 -262144
-1 -1;
#X obj 57 935 bng 15 250 50 0 empty empty empty 17 7 0 10 -262144 -1
-1;
#X obj 395 402 bng 15 250 50 0 empty empty empty 17 7 0 10 -262144
-1 -1;
#X obj 395 538 bng 15 250 50 0 empty empty empty 17 7 0 10 -262144
-1 -1;
#X obj 623 553 bng 15 250 50 0 empty empty empty 17 7 0 10 -262144
-1 -1;
#X obj 623 417 bng 15 250 50 0 empty empty empty 17 7 0 10 -262144
-1 -1;
#X text 413 401 TRACK MANAGER;
#X text 805 383 CHANNEL 1:;
#X text 803 660 CHANNEL 2:;
#X obj 763 268 bng 15 250 50 0 empty empty empty 17 7 0 10 -262144
-1 -1;
#X obj 1654 283 bng 15 250 50 0 empty empty empty 17 7 0 10 -262144
-1 -1;
#X obj 1654 969 bng 15 250 50 0 empty empty empty 17 7 0 10 -262144
-1 -1;
#X obj 763 954 bng 15 250 50 0 empty empty empty 17 7 0 10 -262144
-1 -1;
#X text 782 267 PLAYER;
#X text 79 729 TABLE ALLOCATOR;
#X obj 110 897 ml_table_allocator;
#X obj 110 871 r table_allocator;
#X text 392 624 LAYER MERGER;
#X obj 467 702 r layer_merger;
#X obj 467 728 ml_layer_merger;
#X obj 817 436 bng 15 250 50 0 empty empty empty 17 7 0 10 -262144
-1 -1;
#X obj 1015 436 bng 15 250 50 0 empty empty empty 17 7 0 10 -262144
-1 -1;
#X obj 1210 436 bng 15 250 50 0 empty empty empty 17 7 0 10 -262144
-1 -1;
#X obj 1405 435 bng 15 250 50 0 empty empty empty 17 7 0 10 -262144
-1 -1;
#X obj 813 717 bng 15 250 50 0 empty empty empty 17 7 0 10 -262144
-1 -1;
#X obj 1011 718 bng 15 250 50 0 empty empty empty 17 7 0 10 -262144
-1 -1;
#X obj 1206 717 bng 15 250 50 0 empty empty empty 17 7 0 10 -262144
-1 -1;
#X obj 1405 717 bng 15 250 50 0 empty empty empty 17 7 0 10 -262144
-1 -1;
#X msg 1098 236 flag_switch_looping ch1 t1;
#X msg 1159 256 flag_switch_looping ch1 t2;
#X obj 1080 294 r set_up_new_cycle;
#X obj 383 30 bng 15 250 50 0 empty empty empty 17 7 0 10 -262144 -1
-1;
#X obj 831 45 bng 15 250 50 0 empty empty empty 17 7 0 10 -262144 -1
-1;
#X obj 383 221 bng 15 250 50 0 empty empty empty 17 7 0 10 -262144
-1 -1;
#X obj 831 236 bng 15 250 50 0 empty empty empty 17 7 0 10 -262144
-1 -1;
#X obj 483 206 s \$1;
#X obj 428 133 comport 1 9600;
#X obj 140 764 r resizing_metro;
#X obj 69 827 r set_up_new_cycle;
#X obj 431 657 r set_up_new_cycle;
#X obj 140 791 metro 0 192 samp;
#X obj 173 149 metro;
#X obj 173 171 bng 15 250 50 0 empty empty empty 17 7 0 10 -262144
-1 -1;
#X obj 173 120 r click_metro;
#X obj 227 219 r click_tone;
#X obj 151 120 tgl 15 0 empty empty empty 17 7 0 10 -262144 -1 -1 0
1;
#X obj 173 219 vline~;
#X msg 173 192 1 20 \, 0 20 20;
#X obj 173 273 *~;
#X obj 190 247 osc~;
#X obj 84 176 ml_click;
#X obj 98 203 s \$1;
#X obj 84 150 r click;
#X obj 174 298 s~ click_signal;
#X obj 60 92 bng 15 250 50 0 empty empty empty 17 7 0 10 -262144 -1
-1;
#X obj 329 107 bng 15 250 50 0 empty empty empty 17 7 0 10 -262144
-1 -1;
#X obj 60 319 bng 15 250 50 0 empty empty empty 17 7 0 10 -262144 -1
-1;
#X obj 329 334 bng 15 250 50 0 empty empty empty 17 7 0 10 -262144
-1 -1;
#X text 83 89 CLICK;
#X obj 34 610 r~ main_in_ch1;
#X obj 203 668 tabwrite~;
#X obj 185 611 r~ main_in_ch2;
#X obj 52 633 r tabwrite_rec_ch1;
#X obj 203 634 r tabwrite_rec_ch2;
#X msg 557 285 flag_recording ch2 t1;
#X msg 576 307 flag_recording ch2 t2;
#X msg 561 332 flag_swap_versions ch2 t1;
#X msg 556 362 flag_swap_versions ch2 t2;
#X obj 242 160 print muo;
#X obj 577 95 t b a;
#X msg 577 120 10;
#X msg 646 117 devicename /tmp/mlbtslave;
#X obj 646 89 loadbang;
#X text 406 27 MESSAGE HANDLER;
#X obj 404 106 r message_handler;
#X obj 428 173 ml_message_handler;
#X obj 646 146 comport 1 9600;
#X obj 577 49 r gui;
#X msg 577 72 print \$1;
#X text 550 120 EOL;
#X connect 3 0 5 0;
#X connect 3 1 5 1;
#X connect 4 0 7 0;
#X connect 4 1 7 1;
#X connect 6 0 4 0;
#X connect 8 0 4 0;
#X connect 9 0 4 0;
#X connect 10 0 141 0;
#X connect 12 0 3 0;
#X connect 13 0 113 0;
#X connect 14 0 3 0;
#X connect 15 0 4 0;
#X connect 16 0 19 0;
#X connect 17 0 19 1;
#X connect 19 0 18 0;
#X connect 20 0 4 0;
#X connect 21 0 145 0;
#X connect 23 0 18 0;
#X connect 24 0 16 0;
#X connect 25 0 17 0;
#X connect 27 0 17 0;
#X connect 27 0 16 0;
#X connect 27 0 18 0;
#X connect 28 0 3 0;
#X connect 29 0 4 0;
#X connect 30 0 42 0;
#X connect 31 0 43 0;
#X connect 32 0 44 0;
#X connect 33 0 45 0;
#X connect 34 0 46 0;
#X connect 35 0 47 0;
#X connect 36 0 48 0;
#X connect 37 0 49 0;
#X connect 38 0 39 0;
#X connect 38 0 40 0;
#X connect 39 0 41 0;
#X connect 40 0 41 0;
#X connect 50 0 30 0;
#X connect 51 0 32 0;
#X connect 52 0 34 0;
#X connect 53 0 36 0;
#X connect 54 0 31 0;
#X connect 55 0 33 0;
#X connect 56 0 35 0;
#X connect 57 0 37 0;
#X connect 58 0 74 0;
#X connect 59 0 82 0;
#X connect 60 0 75 0;
#X connect 61 0 83 0;
#X connect 62 0 76 0;
#X connect 63 0 84 0;
#X connect 64 0 77 0;
#X connect 65 0 85 0;
#X connect 66 0 67 0;
#X connect 66 0 68 0;
#X connect 67 0 69 0;
#X connect 68 0 69 0;
#X connect 70 0 58 0;
#X connect 71 0 60 0;
#X connect 72 0 62 0;
#X connect 73 0 64 0;
#X connect 78 0 59 0;
#X connect 79 0 61 0;
#X connect 80 0 63 0;
#X connect 81 0 65 0;
#X connect 86 0 87 1;
#X connect 87 0 30 0;
#X connect 87 0 31 0;
#X connect 88 0 32 0;
#X connect 88 0 33 0;
#X connect 89 0 88 1;
#X connect 90 0 34 0;
#X connect 90 0 35 0;
#X connect 91 0 90 1;
#X connect 92 0 36 0;
#X connect 92 0 37 0;
#X connect 93 0 92 1;
#X connect 94 0 146 0;
#X connect 95 0 147 0;
#X connect 96 0 148 0;
#X connect 97 0 149 0;
#X connect 98 0 58 0;
#X connect 98 0 59 0;
#X connect 99 0 60 0;
#X connect 99 0 61 0;
#X connect 100 0 62 0;
#X connect 100 0 63 0;
#X connect 101 0 64 0;
#X connect 101 0 65 0;
#X connect 102 0 150 0;
#X connect 103 0 151 0;
#X connect 104 0 152 0;
#X connect 105 0 153 0;
#X connect 106 0 98 1;
#X connect 107 0 99 1;
#X connect 108 0 100 1;
#X connect 109 0 101 1;
#X connect 110 0 3 0;
#X connect 111 0 3 0;
#X connect 112 0 3 0;
#X connect 113 0 114 0;
#X connect 113 1 114 1;
#X connect 115 0 117 0;
#X connect 115 0 116 0;
#X connect 116 0 118 0;
#X connect 117 0 118 0;
#X connect 120 0 123 0;
#X connect 120 0 121 0;
#X connect 121 0 122 0;
#X connect 123 0 122 0;
#X connect 124 0 127 0;
#X connect 124 0 125 0;
#X connect 125 0 126 0;
#X connect 127 0 126 0;
#X connect 128 0 129 0;
#X connect 128 0 131 0;
#X connect 129 0 130 0;
#X connect 131 0 130 0;
#X connect 135 0 138 0;
#X connect 135 0 136 0;
#X connect 136 0 137 0;
#X connect 138 0 137 0;
#X connect 141 0 11 0;
#X connect 141 1 11 1;
#X connect 142 0 141 0;
#X connect 144 0 145 0;
#X connect 145 0 26 0;
#X connect 145 1 26 1;
#X connect 146 0 87 0;
#X connect 147 0 88 0;
#X connect 148 0 90 0;
#X connect 149 0 92 0;
#X connect 150 0 98 0;
#X connect 151 0 99 0;
#X connect 152 0 100 0;
#X connect 153 0 101 0;
#X connect 154 0 113 0;
#X connect 155 0 113 0;
#X connect 156 0 113 0;
#X connect 157 0 159 0;
#X connect 157 0 158 0;
#X connect 158 0 160 0;
#X connect 159 0 160 0;
#X connect 162 0 201 0;
#X connect 163 0 166 0;
#X connect 164 0 141 0;
#X connect 165 0 145 0;
#X connect 166 0 141 0;
#X connect 167 0 168 0;
#X connect 167 0 176 0;
#X connect 168 0 173 0;
#X connect 169 0 167 0;
#X connect 169 0 194 0;
#X connect 170 0 175 0;
#X connect 171 0 167 0;
#X connect 172 0 174 0;
#X connect 173 0 172 0;
#X connect 174 0 179 0;
#X connect 175 0 174 1;
#X connect 176 0 177 0;
#X connect 176 1 177 1;
#X connect 178 0 176 0;
#X connect 180 0 182 0;
#X connect 180 0 181 0;
#X connect 181 0 183 0;
#X connect 182 0 183 0;
#X connect 185 0 22 0;
#X connect 187 0 186 0;
#X connect 188 0 22 0;
#X connect 189 0 186 0;
#X connect 190 0 3 0;
#X connect 191 0 3 0;
#X connect 192 0 3 0;
#X connect 193 0 3 0;
#X connect 195 0 196 0;
#X connect 195 1 202 0;
#X connect 196 0 202 0;
#X connect 197 0 202 0;
#X connect 198 0 197 0;
#X connect 200 0 201 0;
#X connect 201 0 161 0;
#X connect 201 1 161 1;
#X connect 202 0 201 0;
#X connect 203 0 204 0;
#X connect 204 0 195 0;
