#N canvas 65 97 1855 999 10;
#N canvas 65 134 1782 934 init 0;
#X obj 510 68 loadbang;
#X msg 510 89 bang \; pd dsp 1 \;;
#X text 1485 499 /* ch - channel */;
#X text 1486 526 /* l - layer */;
#X text 1486 540 /* a/b - version */;
#X text 1485 485 /* p - phrase */;
#X obj 53 622 table p1_ch1_t2_l1_a;
#X obj 52 645 table p1_ch1_t2_l2_a;
#X obj 209 622 table p1_ch1_t2_l1_b;
#X obj 209 645 table p1_ch1_t2_l2_b;
#X obj 52 697 table p1_ch1_t3_l1_a;
#X obj 51 720 table p1_ch1_t3_l2_a;
#X obj 208 697 table p1_ch1_t3_l1_b;
#X obj 208 720 table p1_ch1_t3_l2_b;
#X obj 51 768 table p1_ch1_t4_l1_a;
#X obj 50 791 table p1_ch1_t4_l2_a;
#X obj 207 768 table p1_ch1_t4_l1_b;
#X obj 207 791 table p1_ch1_t4_l2_b;
#X text 50 531 track 1:;
#X text 49 603 track 2:;
#X text 50 680 track 3:;
#X text 47 750 track 4:;
#X text 398 532 track 1:;
#X text 396 606 track 2:;
#X text 397 683 track 3:;
#X text 394 753 track 4:;
#X obj 401 551 table p1_ch2_t1_l1_a;
#X obj 557 551 table p1_ch2_t1_l1_b;
#X obj 400 574 table p1_ch2_t1_l2_a;
#X obj 557 574 table p1_ch2_t1_l2_b;
#X obj 400 625 table p1_ch2_t2_l1_a;
#X obj 556 625 table p1_ch2_t2_l1_b;
#X obj 399 648 table p1_ch2_t2_l2_a;
#X obj 555 648 table p1_ch2_t2_l2_b;
#X obj 398 700 table p1_ch2_t3_l1_a;
#X obj 555 700 table p1_ch2_t3_l1_b;
#X obj 398 723 table p1_ch2_t3_l2_a;
#X obj 555 723 table p1_ch2_t3_l2_b;
#X obj 398 771 table p1_ch2_t4_l1_a;
#X obj 397 794 table p1_ch2_t4_l2_a;
#X obj 554 771 table p1_ch2_t4_l1_b;
#X obj 554 794 table p1_ch2_t4_l2_b;
#X text 793 534 track 1:;
#X text 791 608 track 2:;
#X text 792 685 track 3:;
#X text 789 755 track 4:;
#X text 1141 537 track 1:;
#X text 1139 611 track 2:;
#X text 1140 688 track 3:;
#X text 1137 758 track 4:;
#X obj 796 553 table p2_ch1_t1_l1_a;
#X obj 952 553 table p2_ch1_t1_l1_b;
#X obj 795 576 table p2_ch1_t1_l2_a;
#X obj 952 576 table p2_ch1_t1_l2_b;
#X obj 795 627 table p2_ch1_t2_l1_a;
#X obj 951 627 table p2_ch1_t2_l1_b;
#X obj 794 650 table p2_ch1_t2_l2_a;
#X obj 951 650 table p2_ch1_t2_l2_b;
#X obj 794 702 table p2_ch1_t3_l1_a;
#X obj 950 702 table p2_ch1_t3_l1_b;
#X obj 793 725 table p2_ch1_t3_l2_a;
#X obj 950 725 table p2_ch1_t3_l2_b;
#X obj 793 773 table p2_ch1_t4_l1_a;
#X obj 949 773 table p2_ch1_t4_l1_b;
#X obj 792 796 table p2_ch1_t4_l2_a;
#X obj 949 796 table p2_ch1_t4_l2_b;
#X obj 1144 556 table p2_ch2_t1_l1_a;
#X obj 1300 556 table p2_ch2_t1_l1_b;
#X obj 1143 579 table p2_ch2_t1_l2_a;
#X obj 1300 579 table p2_ch2_t1_l2_b;
#X obj 1143 630 table p2_ch2_t2_l1_a;
#X obj 1299 630 table p2_ch2_t2_l1_b;
#X obj 1142 653 table p2_ch2_t2_l2_a;
#X obj 1298 653 table p2_ch2_t2_l2_b;
#X obj 1141 705 table p2_ch2_t3_l1_a;
#X obj 1298 705 table p2_ch2_t3_l1_b;
#X obj 1141 728 table p2_ch2_t3_l2_a;
#X obj 1298 728 table p2_ch2_t3_l2_b;
#X obj 1141 776 table p2_ch2_t4_l1_a;
#X obj 1297 776 table p2_ch2_t4_l1_b;
#X obj 1140 799 table p2_ch2_t4_l2_a;
#X obj 1297 799 table p2_ch2_t4_l2_b;
#X obj 39 495 bng 15 250 50 0 empty empty empty 17 7 0 10 -262144 -1
-1;
#X obj 360 510 bng 15 250 50 0 empty empty empty 17 7 0 10 -262144
-1 -1;
#X obj 360 843 bng 15 250 50 0 empty empty empty 17 7 0 10 -262144
-1 -1;
#X obj 39 828 bng 15 250 50 0 empty empty empty 17 7 0 10 -262144 -1
-1;
#X text 62 493 channel 1:;
#X obj 1131 498 bng 15 250 50 0 empty empty empty 17 7 0 10 -262144
-1 -1;
#X obj 1452 513 bng 15 250 50 0 empty empty empty 17 7 0 10 -262144
-1 -1;
#X obj 1452 846 bng 15 250 50 0 empty empty empty 17 7 0 10 -262144
-1 -1;
#X obj 1131 831 bng 15 250 50 0 empty empty empty 17 7 0 10 -262144
-1 -1;
#X obj 389 498 bng 15 250 50 0 empty empty empty 17 7 0 10 -262144
-1 -1;
#X obj 710 513 bng 15 250 50 0 empty empty empty 17 7 0 10 -262144
-1 -1;
#X obj 710 846 bng 15 250 50 0 empty empty empty 17 7 0 10 -262144
-1 -1;
#X obj 389 831 bng 15 250 50 0 empty empty empty 17 7 0 10 -262144
-1 -1;
#X text 409 497 channel 2:;
#X obj 783 496 bng 15 250 50 0 empty empty empty 17 7 0 10 -262144
-1 -1;
#X obj 1104 511 bng 15 250 50 0 empty empty empty 17 7 0 10 -262144
-1 -1;
#X obj 1104 844 bng 15 250 50 0 empty empty empty 17 7 0 10 -262144
-1 -1;
#X obj 783 829 bng 15 250 50 0 empty empty empty 17 7 0 10 -262144
-1 -1;
#X text 806 494 channel 1:;
#X text 1154 496 channel 2:;
#X obj 18 455 bng 15 250 50 0 empty empty empty 17 7 0 10 -262144 -1
-1;
#X obj 735 470 bng 15 250 50 0 empty empty empty 17 7 0 10 -262144
-1 -1;
#X obj 18 863 bng 15 250 50 0 empty empty empty 17 7 0 10 -262144 -1
-1;
#X obj 735 878 bng 15 250 50 0 empty empty empty 17 7 0 10 -262144
-1 -1;
#X text 39 455 phrase 1:;
#X obj 765 456 bng 15 250 50 0 empty empty empty 17 7 0 10 -262144
-1 -1;
#X obj 1482 471 bng 15 250 50 0 empty empty empty 17 7 0 10 -262144
-1 -1;
#X obj 765 864 bng 15 250 50 0 empty empty empty 17 7 0 10 -262144
-1 -1;
#X obj 1482 879 bng 15 250 50 0 empty empty empty 17 7 0 10 -262144
-1 -1;
#X text 786 454 phrase 2:;
#X text 1486 512 /* t - track */;
#N canvas 271 191 1416 697 reset_volumes 0;
#X obj 784 14 inlet;
#X obj 1136 178 s volume_ch1_t1;
#X obj 532 204 s mute_ch1_t1;
#X obj 1121 213 s volume_ch1_t2;
#X obj 518 234 s mute_ch1_t2;
#X obj 1095 246 s volume_ch1_t3;
#X obj 504 271 s mute_ch1_t3;
#X obj 1076 286 s volume_ch1_t4;
#X obj 489 312 s mute_ch1_t4;
#X obj 930 388 s volume_ch2_t1;
#X obj 328 405 s mute_ch2_t1;
#X obj 888 421 s volume_ch2_t2;
#X obj 301 445 s mute_ch2_t2;
#X obj 838 468 s volume_ch2_t3;
#X obj 260 492 s mute_ch2_t3;
#X obj 797 507 s volume_ch2_t4;
#X obj 220 532 s mute_ch2_t4;
#X msg 438 88 0;
#X msg 948 66 1;
#X obj 540 165 s mute_ch1;
#X obj 362 376 s mute_ch2;
#X obj 1147 141 s volume_ch1;
#X obj 961 349 s volume_ch2;
#X obj 251 154 s mute_click;
#X obj 786 138 s volume_click;
#X connect 0 0 17 0;
#X connect 0 0 18 0;
#X connect 17 0 2 0;
#X connect 17 0 4 0;
#X connect 17 0 6 0;
#X connect 17 0 8 0;
#X connect 17 0 10 0;
#X connect 17 0 12 0;
#X connect 17 0 14 0;
#X connect 17 0 16 0;
#X connect 17 0 19 0;
#X connect 17 0 20 0;
#X connect 17 0 23 0;
#X connect 18 0 1 0;
#X connect 18 0 3 0;
#X connect 18 0 5 0;
#X connect 18 0 7 0;
#X connect 18 0 9 0;
#X connect 18 0 11 0;
#X connect 18 0 13 0;
#X connect 18 0 15 0;
#X connect 18 0 21 0;
#X connect 18 0 22 0;
#X connect 18 0 24 0;
#X restore 510 225 pd reset_volumes;
#N canvas 65 109 450 300 reset_click 0;
#X obj 107 278 s click;
#X msg 168 193 set_signature 4 4;
#X msg 169 235 set beat_count 0;
#X obj 90 81 inlet;
#X msg 45 191 set_tempo 60;
#X connect 1 0 0 0;
#X connect 2 0 0 0;
#X connect 3 0 4 0;
#X connect 3 0 1 0;
#X connect 3 0 2 0;
#X connect 4 0 0 0;
#X restore 568 152 pd reset_click;
#X obj 536 128 t b b;
#X msg 536 176 start;
#X obj 536 203 s click;
#X obj 53 550 table p1_ch1_t1_l1_a;
#X obj 53 573 table p1_ch1_t1_l2_a;
#X obj 209 550 table p1_ch1_t1_l1_b;
#X obj 209 573 table p1_ch1_t1_l2_b;
#X connect 0 0 1 0;
#X connect 1 0 113 0;
#X connect 1 0 115 0;
#X connect 82 0 85 0;
#X connect 82 0 83 0;
#X connect 83 0 84 0;
#X connect 85 0 84 0;
#X connect 87 0 90 0;
#X connect 87 0 88 0;
#X connect 88 0 89 0;
#X connect 90 0 89 0;
#X connect 91 0 94 0;
#X connect 91 0 92 0;
#X connect 92 0 93 0;
#X connect 94 0 93 0;
#X connect 96 0 99 0;
#X connect 96 0 97 0;
#X connect 97 0 98 0;
#X connect 99 0 98 0;
#X connect 102 0 104 0;
#X connect 102 0 103 0;
#X connect 103 0 105 0;
#X connect 104 0 105 0;
#X connect 107 0 109 0;
#X connect 107 0 108 0;
#X connect 108 0 110 0;
#X connect 109 0 110 0;
#X connect 115 0 116 0;
#X connect 115 1 114 0;
#X connect 116 0 117 0;
#X restore 24 38 pd init;
#N canvas 615 360 450 300 channel_test 0;
#X obj 15 7 adc~;
#X obj 16 75 *~ 1;
#X obj 63 75 *~ 0;
#X obj 203 20 tgl 15 0 empty empty empty 17 7 0 10 -262144 -1 -1 0
1;
#X obj 154 5 sel 1;
#X msg 70 4 0;
#X msg 117 4 1;
#X msg 109 44 0;
#X msg 63 33 1;
#X obj 152 43 bng 15 250 50 0 empty empty empty 17 7 0 10 -262144 -1
-1;
#X floatatom 5 53 5 0 0 0 - - -, f 5;
#X floatatom 124 85 5 0 0 0 - - -, f 5;
#X obj 58 133 metro 100;
#X obj 58 113 tgl 15 0 empty empty empty 17 7 0 10 -262144 -1 -1 0
1;
#X text 79 114 monitor ON/OFF;
#X text 222 19 /* switch channels */;
#N canvas 65 85 450 250 (subpatch) 0;
#X array phrase_1_monitor 100 float 5;
#A 0 -0.000376701 -0.000503182 -0.00070715 -0.000445485 -0.000537276
-0.000216126 -0.000398874 -0.000912309 -0.000821233 -0.000342846 -0.000671506
-0.000846386 -0.000445843 -0.000249982 -0.000455976 -0.000456452 -0.000593662
-0.000365615 -0.000605106 -0.000137687 -0.000103712 -0.000628471 -0.000308752
-0.000546098 -0.000594378 -0.000377417 -0.000741959 -0.000388503 -0.000604987
-0.000720024 -0.000697494 -0.000216842 -0.000410557 -0.000559449 -0.000788689
-0.000728965 -0.000720501 -0.000671983 -0.000788569 0.0428572 -0.000445008
-0.000593543 -0.000720739 -0.000319481 -0.000730038 -0.00044632 -0.00038743
-0.000686169 -0.000445247 -0.000662088 -0.000491858 -0.000320077 -0.000285387
-0.000181794 -0.000400424 -0.000354409 -5.91278e-05 -0.000193 -0.000525594
-0.000115275 -0.000241041 -0.000434399 -2.39611e-05 -0.000114799 9.01222e-05
0.000169754 0.000228524 9.08375e-05 0.000409722 0.000317574 0.000341296
0.00019145 0.000466347 0.000340343 0.000305414 0.000522852 0.000717163
0.00064981 0.000443101 0.00082159 0.000898957 0.000821829 0.000772476
0.00107038 0.000752807 0.00128651 0.00157261 0.00137806 0.00095582
0.00156164 0.00132036 0.00120902 0.00138998 0.00132132 0.00112557 0.00133336
0.00129926 0.00159454 0.00146008 0.00179875;
#X coords 0 1 99 -1 200 140 1;
#X restore 239 143 graph;
#X obj 18 154 tabwrite~ phrase_1_monitor;
#X connect 0 0 1 0;
#X connect 0 1 2 0;
#X connect 1 0 17 0;
#X connect 2 0 17 0;
#X connect 3 0 4 0;
#X connect 4 0 5 0;
#X connect 4 0 6 0;
#X connect 4 1 9 0;
#X connect 5 0 1 1;
#X connect 5 0 10 0;
#X connect 6 0 11 0;
#X connect 6 0 2 1;
#X connect 7 0 2 1;
#X connect 7 0 11 0;
#X connect 8 0 1 1;
#X connect 8 0 10 0;
#X connect 9 0 7 0;
#X connect 9 0 8 0;
#X connect 12 0 17 0;
#X connect 13 0 12 0;
#X restore 23 7 pd channel_test;
#N canvas 65 53 1855 1027 click 1;
#X floatatom 728 351 5 0 0 0 - - -, f 5;
#X floatatom 728 451 5 0 0 0 - - -, f 5;
#X text 764 350 bpm;
#X obj 701 496 metro;
#X obj 701 460 tgl 15 0 empty empty empty 17 7 0 10 -262144 -1 -1 1
1;
#X text 657 459 on/off;
#X text 739 496 outputs bang every 'x' ms;
#X obj 716 609 osc~ 800;
#X obj 701 653 *~;
#X obj 700 578 vline~;
#X msg 701 529 1 20 \, 0 20 20;
#X text 795 526 got to 1 (full volume) in 20 \, then go to zero (no
volume) in 20 ms after waiting 20 ms;
#X text 749 577 translate to audio rate signal;
#X text 779 610 generate 800 hz sine tone;
#X text 731 652 multiply sine tone by amplitude envelope;
#X obj 702 692 *~ 1;
#X obj 747 677 tgl 15 0 empty empty empty 17 7 0 10 -262144 -1 -1 0
1;
#X obj 211 569 float 0;
#X obj 211 596 + 1;
#X floatatom 211 826 5 0 0 0 - - -, f 5;
#X obj 729 375 expr (60/$f1)*1000*4;
#X obj 729 429 / 4;
#X obj 227 716 bng 15 250 50 0 empty empty empty 17 7 0 10 -262144
-1 -1;
#X obj 298 757 bng 15 250 50 0 empty empty empty 17 7 0 10 -262144
-1 -1;
#X obj 227 692 moses 2;
#X obj 429 47 inlet;
#X text 102 297 time signature nominator;
#X text 310 338 time signature denominator;
#X msg 227 736 1000;
#X msg 298 778 800;
#X msg 702 138 1;
#X msg 547 45 start;
#X msg 734 170 0;
#X msg 613 48 stop;
#X obj 228 623 moses;
#X obj 211 872 s new_beat;
#X obj 227 804 s new_bar;
#X obj 719 47 inlet beat_count;
#X obj 429 71 route set_tempo set_signature set_beat_count start stop
;
#X msg 280 298 \$1;
#X msg 503 337 \$2;
#X floatatom 281 593 5 0 0 0 - - -, f 5;
#X floatatom 746 406 5 0 0 0 - - -, f 5;
#X floatatom 1262 172 5 0 0 0 - - -, f 5;
#X obj 1362 311 bng 15 250 50 0 empty empty empty 17 7 0 10 -262144
-1 -1;
#X obj 1262 197 moses 1;
#X obj 1316 334 spigot;
#X msg 1261 230 0;
#X msg 1296 230 1;
#X obj 1316 406 float 0;
#X obj 1316 428 + 1;
#X msg 1363 385 0;
#X obj 1352 557 s new_cycle;
#X floatatom 1276 550 5 0 0 0 - - -, f 5;
#X obj 1276 574 moses;
#X obj 1352 453 moses 2;
#X obj 1352 483 bng 15 250 50 0 empty empty empty 17 7 0 10 -262144
-1 -1;
#X msg 257 515 0;
#X obj 1362 284 r new_beat;
#X text 1330 230 turn ON/OFF counting beats of cycle;
#X text 251 717 is first beat of bar -> accent;
#X text 326 756 is not first beat of bar -> no accent;
#X text 1412 453 is first beat of cycle -> new cycle;
#X obj 260 647 s reset_bar_beats;
#X obj 257 493 r reset_bar_beats;
#X obj 1308 606 s reset_cycle_beats;
#X obj 1296 637 s reset_bar_beats;
#X text 1322 578 is last beat of cycle -> reset beat count for cycle
and bar;
#X obj 541 136 s reset_bar_beats;
#X obj 542 162 s reset_cycle_beats;
#X text 744 140 turn metronome ON;
#X text 769 169 turn metronome OFF;
#X text 270 623 is last beat of bar -> reset beat count for bar;
#X obj 1308 89 s click;
#X msg 1308 63 set_beat_count 6;
#X obj 1363 360 r reset_cycle_beats;
#X obj 204 661 t f f;
#X obj 1439 557 s set_up_new_cycle;
#X obj 1352 503 t b b;
#X obj 701 728 s~ click;
#X msg 1352 530 new_cycle;
#X msg 1439 529 set_up_new_cycle;
#X msg 227 768 new_bar;
#X msg 211 847 new_beat;
#X connect 0 0 20 0;
#X connect 1 0 3 1;
#X connect 3 0 10 0;
#X connect 3 0 17 0;
#X connect 4 0 3 0;
#X connect 7 0 8 1;
#X connect 8 0 15 0;
#X connect 9 0 8 0;
#X connect 10 0 9 0;
#X connect 15 0 79 0;
#X connect 16 0 15 1;
#X connect 17 0 18 0;
#X connect 18 0 17 1;
#X connect 18 0 34 0;
#X connect 18 0 76 0;
#X connect 19 0 83 0;
#X connect 20 0 21 0;
#X connect 21 0 1 0;
#X connect 22 0 28 0;
#X connect 23 0 29 0;
#X connect 24 0 22 0;
#X connect 24 1 23 0;
#X connect 25 0 38 0;
#X connect 28 0 7 0;
#X connect 28 0 82 0;
#X connect 29 0 7 0;
#X connect 30 0 4 0;
#X connect 31 0 38 0;
#X connect 32 0 4 0;
#X connect 33 0 38 0;
#X connect 34 1 63 0;
#X connect 38 0 0 0;
#X connect 38 1 39 0;
#X connect 38 1 40 0;
#X connect 38 1 68 0;
#X connect 38 1 69 0;
#X connect 38 2 43 0;
#X connect 38 2 68 0;
#X connect 38 2 69 0;
#X connect 38 3 30 0;
#X connect 38 4 32 0;
#X connect 39 0 41 0;
#X connect 40 0 42 0;
#X connect 41 0 34 1;
#X connect 42 0 21 1;
#X connect 43 0 45 0;
#X connect 44 0 46 0;
#X connect 45 0 47 0;
#X connect 45 1 48 0;
#X connect 45 1 54 1;
#X connect 46 0 49 0;
#X connect 47 0 46 1;
#X connect 48 0 46 1;
#X connect 49 0 50 0;
#X connect 50 0 49 1;
#X connect 50 0 53 0;
#X connect 50 0 55 0;
#X connect 51 0 49 1;
#X connect 53 0 54 0;
#X connect 54 1 65 0;
#X connect 54 1 66 0;
#X connect 55 0 56 0;
#X connect 56 0 78 0;
#X connect 57 0 17 1;
#X connect 58 0 44 0;
#X connect 64 0 57 0;
#X connect 74 0 73 0;
#X connect 75 0 51 0;
#X connect 76 0 19 0;
#X connect 76 1 24 0;
#X connect 78 0 80 0;
#X connect 78 1 81 0;
#X connect 80 0 52 0;
#X connect 81 0 77 0;
#X connect 82 0 36 0;
#X connect 83 0 35 0;
#X restore 153 38 pd click;
#X obj 153 11 r click;
#N canvas 102 242 1537 815 mixer 0;
#X obj 45 20 bng 15 250 50 0 empty empty empty 17 7 0 10 -262144 -1
-1;
#X obj 45 298 bng 15 250 50 0 empty empty empty 17 7 0 10 -262144 -1
-1;
#X obj 687 35 bng 15 250 50 0 empty empty empty 17 7 0 10 -262144 -1
-1;
#X obj 687 313 bng 15 250 50 0 empty empty empty 17 7 0 10 -262144
-1 -1;
#X text 68 19 channel 1:;
#X obj 759 23 bng 15 250 50 0 empty empty empty 17 7 0 10 -262144 -1
-1;
#X obj 759 304 bng 15 250 50 0 empty empty empty 17 7 0 10 -262144
-1 -1;
#X obj 1401 38 bng 15 250 50 0 empty empty empty 17 7 0 10 -262144
-1 -1;
#X obj 1401 319 bng 15 250 50 0 empty empty empty 17 7 0 10 -262144
-1 -1;
#X text 782 22 channel 2:;
#X obj 221 53 r~ ch1_t2_l1;
#X obj 378 52 r~ ch1_t3_l1;
#X obj 531 52 r~ ch1_t4_l1;
#X obj 87 78 r~ ch1_t1_l2;
#X obj 237 78 r~ ch1_t2_l2;
#X obj 396 74 r~ ch1_t3_l2;
#X obj 547 75 r~ ch1_t4_l2;
#X obj 778 59 r~ ch2_t1_l1;
#X obj 930 59 r~ ch2_t2_l1;
#X obj 1087 58 r~ ch2_t3_l1;
#X obj 1240 58 r~ ch2_t4_l1;
#X obj 798 84 r~ ch2_t1_l2;
#X obj 946 84 r~ ch2_t2_l2;
#X obj 1106 83 r~ ch2_t3_l2;
#X obj 1256 83 r~ ch2_t4_l2;
#X obj 70 53 r~ ch1_t1_l1;
#X obj 104 129 r mute_ch1_t1;
#X obj 255 128 r mute_ch1_t2;
#X obj 415 125 r mute_ch1_t3;
#X obj 564 125 r mute_ch1_t4;
#X obj 814 139 r mute_ch2_t1;
#X obj 963 135 r mute_ch2_t2;
#X obj 1121 135 r mute_ch2_t3;
#X obj 1273 137 r mute_ch2_t4;
#X obj 69 105 +~;
#X obj 220 103 +~;
#X obj 378 102 +~;
#X obj 530 101 +~;
#X obj 779 114 +~;
#X obj 929 110 +~;
#X obj 1087 109 +~;
#X obj 1239 110 +~;
#X obj 69 211 *~;
#X obj 220 209 *~;
#X obj 378 205 *~;
#X obj 530 208 *~;
#X obj 779 220 *~;
#X obj 929 217 *~;
#X obj 1086 218 *~;
#X obj 1238 218 *~;
#X obj 142 247 +~;
#X obj 453 246 +~;
#X obj 304 288 +~;
#X obj 854 254 +~;
#X obj 1165 253 +~;
#X obj 1016 295 +~;
#X obj 717 524 +~;
#X obj 718 740 dac~;
#X obj 760 524 r~ click;
#X obj 744 711 +~;
#X obj 761 574 *~;
#X obj 779 548 r volume_click;
#X obj 780 598 r mute_click;
#X obj 762 681 *~;
#X obj 104 105 r volume_ch1_t1;
#X obj 255 103 r volume_ch1_t2;
#X obj 415 101 r volume_ch1_t3;
#X obj 564 101 r volume_ch1_t4;
#X obj 814 114 r volume_ch2_t1;
#X obj 963 111 r volume_ch2_t2;
#X obj 1122 111 r volume_ch2_t3;
#X obj 1273 113 r volume_ch2_t4;
#X obj 69 130 *~;
#X obj 220 128 *~;
#X obj 378 127 *~;
#X obj 530 126 *~;
#X obj 779 139 *~;
#X obj 929 135 *~;
#X obj 1087 134 *~;
#X obj 1239 135 *~;
#X obj 508 336 r volume_ch1;
#X obj 970 338 r volume_ch2;
#X obj 563 366 r mute_ch1;
#X obj 944 365 r mute_ch2;
#X obj 473 336 *~;
#X obj 561 458 *~;
#X obj 933 338 *~;
#X obj 868 468 *~;
#X obj 255 153 sel 1;
#X msg 255 179 0, f 1;
#X msg 287 179 1, f 1;
#X obj 104 155 sel 1;
#X msg 104 181 0, f 1;
#X msg 136 181 1, f 1;
#X obj 415 150 sel 1;
#X msg 415 176 0, f 1;
#X msg 447 176 1, f 1;
#X obj 564 151 sel 1;
#X msg 564 177 0, f 1;
#X msg 596 177 1, f 1;
#X obj 814 164 sel 1;
#X msg 814 190 0, f 1;
#X msg 846 190 1, f 1;
#X obj 963 161 sel 1;
#X msg 963 187 0, f 1;
#X msg 995 187 1, f 1;
#X obj 1121 161 sel 1;
#X msg 1121 187 0, f 1;
#X msg 1153 187 1, f 1;
#X obj 1273 163 sel 1;
#X msg 1273 189 0, f 1;
#X msg 1305 189 1, f 1;
#X obj 944 390 sel 1;
#X msg 944 416 0, f 1;
#X msg 976 416 1, f 1;
#X obj 563 391 sel 1;
#X msg 563 417 0, f 1;
#X msg 595 417 1, f 1;
#X obj 780 623 sel 1;
#X msg 780 649 0, f 1;
#X msg 812 649 1, f 1;
#X obj 57 655 adc~;
#X obj 57 703 s~ main_in;
#X obj 57 680 *~ 1;
#X obj 627 616 r~ main_in;
#X obj 718 648 +~;
#X connect 0 0 1 0;
#X connect 0 0 2 0;
#X connect 1 0 3 0;
#X connect 2 0 3 0;
#X connect 5 0 6 0;
#X connect 5 0 7 0;
#X connect 6 0 8 0;
#X connect 7 0 8 0;
#X connect 10 0 35 0;
#X connect 11 0 36 0;
#X connect 12 0 37 0;
#X connect 13 0 34 1;
#X connect 14 0 35 1;
#X connect 15 0 36 1;
#X connect 16 0 37 1;
#X connect 17 0 38 0;
#X connect 18 0 39 0;
#X connect 19 0 40 0;
#X connect 20 0 41 0;
#X connect 21 0 38 1;
#X connect 22 0 39 1;
#X connect 23 0 40 1;
#X connect 24 0 41 1;
#X connect 25 0 34 0;
#X connect 26 0 91 0;
#X connect 27 0 88 0;
#X connect 28 0 94 0;
#X connect 29 0 97 0;
#X connect 30 0 100 0;
#X connect 31 0 103 0;
#X connect 32 0 106 0;
#X connect 33 0 109 0;
#X connect 34 0 72 0;
#X connect 35 0 73 0;
#X connect 36 0 74 0;
#X connect 37 0 75 0;
#X connect 38 0 76 0;
#X connect 39 0 77 0;
#X connect 40 0 78 0;
#X connect 41 0 79 0;
#X connect 42 0 50 0;
#X connect 43 0 50 1;
#X connect 44 0 51 0;
#X connect 45 0 51 1;
#X connect 46 0 53 0;
#X connect 47 0 53 1;
#X connect 48 0 54 0;
#X connect 49 0 54 1;
#X connect 50 0 52 0;
#X connect 51 0 52 1;
#X connect 52 0 84 0;
#X connect 53 0 55 0;
#X connect 54 0 55 1;
#X connect 55 0 86 0;
#X connect 56 0 125 0;
#X connect 58 0 60 0;
#X connect 59 0 57 1;
#X connect 60 0 63 0;
#X connect 61 0 60 1;
#X connect 62 0 118 0;
#X connect 63 0 59 1;
#X connect 64 0 72 1;
#X connect 65 0 73 1;
#X connect 66 0 74 1;
#X connect 67 0 75 1;
#X connect 68 0 76 1;
#X connect 69 0 77 1;
#X connect 70 0 78 1;
#X connect 71 0 79 1;
#X connect 72 0 42 0;
#X connect 73 0 43 0;
#X connect 74 0 44 0;
#X connect 75 0 45 0;
#X connect 76 0 46 0;
#X connect 77 0 47 0;
#X connect 78 0 48 0;
#X connect 79 0 49 0;
#X connect 80 0 84 1;
#X connect 81 0 86 1;
#X connect 82 0 115 0;
#X connect 83 0 112 0;
#X connect 84 0 85 0;
#X connect 85 0 56 0;
#X connect 86 0 87 0;
#X connect 87 0 56 1;
#X connect 88 0 89 0;
#X connect 88 1 90 0;
#X connect 89 0 43 1;
#X connect 90 0 43 1;
#X connect 91 0 92 0;
#X connect 91 1 93 0;
#X connect 92 0 42 1;
#X connect 93 0 42 1;
#X connect 94 0 95 0;
#X connect 94 1 96 0;
#X connect 95 0 44 1;
#X connect 96 0 44 1;
#X connect 97 0 98 0;
#X connect 97 1 99 0;
#X connect 98 0 45 1;
#X connect 99 0 45 1;
#X connect 100 0 101 0;
#X connect 100 1 102 0;
#X connect 101 0 46 1;
#X connect 102 0 46 1;
#X connect 103 0 104 0;
#X connect 103 1 105 0;
#X connect 104 0 47 1;
#X connect 105 0 47 1;
#X connect 106 0 107 0;
#X connect 106 1 108 0;
#X connect 107 0 48 1;
#X connect 108 0 48 1;
#X connect 109 0 110 0;
#X connect 109 1 111 0;
#X connect 110 0 49 1;
#X connect 111 0 49 1;
#X connect 112 0 113 0;
#X connect 112 1 114 0;
#X connect 113 0 87 1;
#X connect 114 0 87 1;
#X connect 115 0 116 0;
#X connect 115 1 117 0;
#X connect 116 0 85 1;
#X connect 117 0 85 1;
#X connect 118 0 119 0;
#X connect 118 1 120 0;
#X connect 119 0 63 1;
#X connect 120 0 63 1;
#X connect 121 0 123 0;
#X connect 123 0 122 0;
#X connect 124 0 125 0;
#X connect 125 0 57 0;
#X connect 125 0 59 0;
#X restore 83 38 pd mixer;
#X obj 461 482 ml_track_manager;
#X obj 211 440 ml_recorder;
#X obj 506 506 s \$1;
#X obj 211 408 r recorder;
#X obj 236 465 s \$1;
#X obj 166 365 r new_cycle;
#X obj 193 387 r new_bar;
#X obj 115 743 r new_beat;
#X obj 168 815 s \$1;
#X obj 461 458 r track_manager;
#X obj 1104 299 r player;
#X msg 425 290 flag_recording ch1 t1;
#X msg 117 258 stop_recording ch1 t1;
#X obj 447 858 tabplay~;
#X obj 516 858 tabplay~;
#X obj 449 914 tabwrite~;
#X obj 448 886 +~;
#X obj 129 343 r set_up_new_cycle;
#X obj 454 681 r new_cycle;
#X obj 87 485 r~ main_in;
#X obj 105 508 r tabwrite_rec;
#X obj 105 542 tabwrite~;
#X obj 484 886 r tabwrite_merge;
#X obj 447 807 r tabplay_merge_1;
#X obj 516 832 r tabplay_merge_2;
#X obj 483 754 s \$1;
#X obj 389 786 r start_merging;
#X msg 444 312 flag_recording ch1 t2;
#X msg 159 284 stop_recording ch1 t2;
#X obj 870 467 tabplay~;
#X obj 870 566 tabplay~;
#X obj 1067 467 tabplay~;
#X obj 1066 566 tabplay~;
#X obj 1261 466 tabplay~;
#X obj 1260 565 tabplay~;
#X obj 1457 466 tabplay~;
#X obj 1457 565 tabplay~;
#X obj 786 366 bng 15 250 50 0 empty empty empty 17 7 0 10 -262144
-1 -1;
#X obj 786 614 bng 15 250 50 0 empty empty empty 17 7 0 10 -262144
-1 -1;
#X obj 1619 381 bng 15 250 50 0 empty empty empty 17 7 0 10 -262144
-1 -1;
#X obj 1619 629 bng 15 250 50 0 empty empty empty 17 7 0 10 -262144
-1 -1;
#X obj 869 497 s~ ch1_t1_l1;
#X obj 870 594 s~ ch1_t1_l2;
#X obj 1066 497 s~ ch1_t2_l1;
#X obj 1065 593 s~ ch1_t2_l2;
#X obj 1261 496 s~ ch1_t3_l1;
#X obj 1260 593 s~ ch1_t3_l2;
#X obj 1458 496 s~ ch1_t4_l1;
#X obj 1457 593 s~ ch1_t4_l2;
#X obj 870 440 r tabplay_ch1_t1_l1;
#X obj 1067 440 r tabplay_ch1_t2_l1;
#X obj 1261 440 r tabplay_ch1_t3_l1;
#X obj 1457 440 r tabplay_ch1_t4_l1;
#X obj 870 538 r tabplay_ch1_t1_l2;
#X obj 1066 538 r tabplay_ch1_t2_l2;
#X obj 1260 538 r tabplay_ch1_t3_l2;
#X obj 1457 538 r tabplay_ch1_t4_l2;
#X obj 866 748 tabplay~;
#X obj 866 847 tabplay~;
#X obj 1063 748 tabplay~;
#X obj 1062 847 tabplay~;
#X obj 1258 747 tabplay~;
#X obj 1257 846 tabplay~;
#X obj 1457 747 tabplay~;
#X obj 1457 846 tabplay~;
#X obj 784 642 bng 15 250 50 0 empty empty empty 17 7 0 10 -262144
-1 -1;
#X obj 784 895 bng 15 250 50 0 empty empty empty 17 7 0 10 -262144
-1 -1;
#X obj 1619 657 bng 15 250 50 0 empty empty empty 17 7 0 10 -262144
-1 -1;
#X obj 1619 910 bng 15 250 50 0 empty empty empty 17 7 0 10 -262144
-1 -1;
#X obj 866 721 r tabplay_ch2_t1_l1;
#X obj 1063 721 r tabplay_ch2_t2_l1;
#X obj 1258 721 r tabplay_ch2_t3_l1;
#X obj 1457 721 r tabplay_ch2_t4_l1;
#X obj 865 778 s~ ch2_t1_l1;
#X obj 1062 778 s~ ch2_t2_l1;
#X obj 1258 777 s~ ch2_t3_l1;
#X obj 1458 777 s~ ch2_t4_l1;
#X obj 866 819 r tabplay_ch2_t1_l2;
#X obj 1062 819 r tabplay_ch2_t2_l2;
#X obj 1257 819 r tabplay_ch2_t3_l2;
#X obj 1457 819 r tabplay_ch2_t4_l2;
#X obj 866 875 s~ ch2_t1_l2;
#X obj 1061 874 s~ ch2_t2_l2;
#X obj 1257 874 s~ ch2_t3_l2;
#X obj 1457 874 s~ ch2_t4_l2;
#X obj 856 413 r loop_ch1_t1;
#X obj 817 440 spigot;
#X obj 1015 440 spigot;
#X obj 1054 413 r loop_ch1_t2;
#X obj 1210 440 spigot;
#X obj 1249 413 r loop_ch1_t3;
#X obj 1405 440 spigot;
#X obj 1444 413 r loop_ch1_t4;
#X obj 817 390 r new_cycle;
#X obj 1015 391 r new_cycle;
#X obj 1210 390 r new_cycle;
#X obj 1405 390 r new_cycle;
#X obj 813 721 spigot;
#X obj 1011 721 spigot;
#X obj 1206 721 spigot;
#X obj 1405 721 spigot;
#X obj 813 671 r new_cycle;
#X obj 1011 672 r new_cycle;
#X obj 1206 671 r new_cycle;
#X obj 1405 671 r new_cycle;
#X obj 852 694 r loop_ch2_t1;
#X obj 1050 694 r loop_ch2_t2;
#X obj 1245 694 r loop_ch2_t3;
#X obj 1444 694 r loop_ch2_t4;
#X msg 429 337 flag_swap_versions ch1 t1;
#X msg 424 367 flag_swap_versions ch1 t2;
#X obj 445 433 r set_up_new_cycle;
#X obj 1104 323 ml_player;
#X obj 1123 350 s \$1;
#X obj 75 317 bng 15 250 50 0 empty empty empty 17 7 0 10 -262144 -1
-1;
#X obj 344 332 bng 15 250 50 0 empty empty empty 17 7 0 10 -262144
-1 -1;
#X obj 75 574 bng 15 250 50 0 empty empty empty 17 7 0 10 -262144 -1
-1;
#X obj 344 589 bng 15 250 50 0 empty empty empty 17 7 0 10 -262144
-1 -1;
#X text 98 314 RECORDER;
#X obj 369 626 bng 15 250 50 0 empty empty empty 17 7 0 10 -262144
-1 -1;
#X obj 644 641 bng 15 250 50 0 empty empty empty 17 7 0 10 -262144
-1 -1;
#X obj 644 953 bng 15 250 50 0 empty empty empty 17 7 0 10 -262144
-1 -1;
#X obj 369 938 bng 15 250 50 0 empty empty empty 17 7 0 10 -262144
-1 -1;
#X obj 74 624 bng 15 250 50 0 empty empty empty 17 7 0 10 -262144 -1
-1;
#X obj 275 639 bng 15 250 50 0 empty empty empty 17 7 0 10 -262144
-1 -1;
#X obj 275 843 bng 15 250 50 0 empty empty empty 17 7 0 10 -262144
-1 -1;
#X obj 74 828 bng 15 250 50 0 empty empty empty 17 7 0 10 -262144 -1
-1;
#X obj 395 402 bng 15 250 50 0 empty empty empty 17 7 0 10 -262144
-1 -1;
#X obj 395 538 bng 15 250 50 0 empty empty empty 17 7 0 10 -262144
-1 -1;
#X obj 623 553 bng 15 250 50 0 empty empty empty 17 7 0 10 -262144
-1 -1;
#X obj 623 417 bng 15 250 50 0 empty empty empty 17 7 0 10 -262144
-1 -1;
#X text 413 401 TRACK MANAGER;
#X text 805 363 CHANNEL 1:;
#X text 803 640 CHANNEL 2:;
#X obj 763 248 bng 15 250 50 0 empty empty empty 17 7 0 10 -262144
-1 -1;
#X obj 1654 265 bng 15 250 50 0 empty empty empty 17 7 0 10 -262144
-1 -1;
#X obj 1654 949 bng 15 250 50 0 empty empty empty 17 7 0 10 -262144
-1 -1;
#X obj 763 934 bng 15 250 50 0 empty empty empty 17 7 0 10 -262144
-1 -1;
#X text 782 247 PLAYER;
#X text 96 622 TABLE ALLOCATOR;
#X obj 127 790 ml_table_allocator;
#X obj 127 764 r table_allocator;
#X text 392 624 LAYER MERGER;
#X obj 467 702 r layer_merger;
#X obj 467 728 ml_layer_merger;
#X obj 817 416 bng 15 250 50 0 empty empty empty 17 7 0 10 -262144
-1 -1;
#X obj 1015 416 bng 15 250 50 0 empty empty empty 17 7 0 10 -262144
-1 -1;
#X obj 1210 416 bng 15 250 50 0 empty empty empty 17 7 0 10 -262144
-1 -1;
#X obj 1405 415 bng 15 250 50 0 empty empty empty 17 7 0 10 -262144
-1 -1;
#X obj 813 697 bng 15 250 50 0 empty empty empty 17 7 0 10 -262144
-1 -1;
#X obj 1011 698 bng 15 250 50 0 empty empty empty 17 7 0 10 -262144
-1 -1;
#X obj 1206 697 bng 15 250 50 0 empty empty empty 17 7 0 10 -262144
-1 -1;
#X obj 1405 697 bng 15 250 50 0 empty empty empty 17 7 0 10 -262144
-1 -1;
#X msg 1098 216 flag_switch_looping ch1 t1;
#X msg 1159 236 flag_switch_looping ch1 t2;
#X obj 1080 274 r set_up_new_cycle;
#X obj 383 67 bng 15 250 50 0 empty empty empty 17 7 0 10 -262144 -1
-1;
#X obj 652 82 bng 15 250 50 0 empty empty empty 17 7 0 10 -262144 -1
-1;
#X obj 383 221 bng 15 250 50 0 empty empty empty 17 7 0 10 -262144
-1 -1;
#X obj 652 236 bng 15 250 50 0 empty empty empty 17 7 0 10 -262144
-1 -1;
#X text 406 64 ARDUINO SIGNAL HANDLER;
#X obj 428 164 ml_arduino_signal_handler;
#X obj 483 197 s \$1;
#X obj 404 106 r arduino_signal_handler;
#X obj 428 133 comport 1 9600;
#X obj 157 657 r resizing_metro;
#X obj 86 720 r set_up_new_cycle;
#X obj 431 657 r set_up_new_cycle;
#X obj 157 684 metro 0 192 samp;
#X connect 3 0 2 0;
#X connect 5 0 7 0;
#X connect 5 1 7 1;
#X connect 6 0 9 0;
#X connect 6 1 9 1;
#X connect 8 0 6 0;
#X connect 10 0 6 0;
#X connect 11 0 6 0;
#X connect 12 0 145 0;
#X connect 14 0 5 0;
#X connect 15 0 117 0;
#X connect 16 0 5 0;
#X connect 17 0 6 0;
#X connect 18 0 21 0;
#X connect 19 0 21 1;
#X connect 21 0 20 0;
#X connect 22 0 6 0;
#X connect 23 0 149 0;
#X connect 24 0 26 0;
#X connect 25 0 26 0;
#X connect 27 0 20 0;
#X connect 28 0 18 0;
#X connect 29 0 19 0;
#X connect 31 0 19 0;
#X connect 31 0 18 0;
#X connect 31 0 20 0;
#X connect 32 0 5 0;
#X connect 33 0 6 0;
#X connect 34 0 46 0;
#X connect 35 0 47 0;
#X connect 36 0 48 0;
#X connect 37 0 49 0;
#X connect 38 0 50 0;
#X connect 39 0 51 0;
#X connect 40 0 52 0;
#X connect 41 0 53 0;
#X connect 42 0 43 0;
#X connect 42 0 44 0;
#X connect 43 0 45 0;
#X connect 44 0 45 0;
#X connect 54 0 34 0;
#X connect 55 0 36 0;
#X connect 56 0 38 0;
#X connect 57 0 40 0;
#X connect 58 0 35 0;
#X connect 59 0 37 0;
#X connect 60 0 39 0;
#X connect 61 0 41 0;
#X connect 62 0 78 0;
#X connect 63 0 86 0;
#X connect 64 0 79 0;
#X connect 65 0 87 0;
#X connect 66 0 80 0;
#X connect 67 0 88 0;
#X connect 68 0 81 0;
#X connect 69 0 89 0;
#X connect 70 0 71 0;
#X connect 70 0 72 0;
#X connect 71 0 73 0;
#X connect 72 0 73 0;
#X connect 74 0 62 0;
#X connect 75 0 64 0;
#X connect 76 0 66 0;
#X connect 77 0 68 0;
#X connect 82 0 63 0;
#X connect 83 0 65 0;
#X connect 84 0 67 0;
#X connect 85 0 69 0;
#X connect 90 0 91 1;
#X connect 91 0 34 0;
#X connect 91 0 35 0;
#X connect 92 0 36 0;
#X connect 92 0 37 0;
#X connect 93 0 92 1;
#X connect 94 0 38 0;
#X connect 94 0 39 0;
#X connect 95 0 94 1;
#X connect 96 0 40 0;
#X connect 96 0 41 0;
#X connect 97 0 96 1;
#X connect 98 0 150 0;
#X connect 99 0 151 0;
#X connect 100 0 152 0;
#X connect 101 0 153 0;
#X connect 102 0 62 0;
#X connect 102 0 63 0;
#X connect 103 0 64 0;
#X connect 103 0 65 0;
#X connect 104 0 66 0;
#X connect 104 0 67 0;
#X connect 105 0 68 0;
#X connect 105 0 69 0;
#X connect 106 0 154 0;
#X connect 107 0 155 0;
#X connect 108 0 156 0;
#X connect 109 0 157 0;
#X connect 110 0 102 1;
#X connect 111 0 103 1;
#X connect 112 0 104 1;
#X connect 113 0 105 1;
#X connect 114 0 5 0;
#X connect 115 0 5 0;
#X connect 116 0 5 0;
#X connect 117 0 118 0;
#X connect 117 1 118 1;
#X connect 119 0 121 0;
#X connect 119 0 120 0;
#X connect 120 0 122 0;
#X connect 121 0 122 0;
#X connect 124 0 127 0;
#X connect 124 0 125 0;
#X connect 125 0 126 0;
#X connect 127 0 126 0;
#X connect 128 0 131 0;
#X connect 128 0 129 0;
#X connect 129 0 130 0;
#X connect 131 0 130 0;
#X connect 132 0 133 0;
#X connect 132 0 135 0;
#X connect 133 0 134 0;
#X connect 135 0 134 0;
#X connect 139 0 142 0;
#X connect 139 0 140 0;
#X connect 140 0 141 0;
#X connect 142 0 141 0;
#X connect 145 0 13 0;
#X connect 145 1 13 1;
#X connect 146 0 145 0;
#X connect 148 0 149 0;
#X connect 149 0 30 0;
#X connect 149 1 30 1;
#X connect 150 0 91 0;
#X connect 151 0 92 0;
#X connect 152 0 94 0;
#X connect 153 0 96 0;
#X connect 154 0 102 0;
#X connect 155 0 103 0;
#X connect 156 0 104 0;
#X connect 157 0 105 0;
#X connect 158 0 117 0;
#X connect 159 0 117 0;
#X connect 160 0 117 0;
#X connect 161 0 163 0;
#X connect 161 0 162 0;
#X connect 162 0 164 0;
#X connect 163 0 164 0;
#X connect 166 0 167 0;
#X connect 166 1 167 1;
#X connect 168 0 166 0;
#X connect 169 0 166 0;
#X connect 170 0 173 0;
#X connect 171 0 145 0;
#X connect 172 0 149 0;
#X connect 173 0 145 0;
